<svg xmlns="http://www.w3.org/2000/svg" width="1200" height="630" viewBox="0 0 1200 630">
  <rect width="1200" height="630" fill="#000000"/>
  <!-- Grid pattern -->
  <defs>
    <pattern id="grid" width="60" height="60" patternUnits="userSpaceOnUse">
      <path d="M 60 0 L 0 0 0 60" fill="none" stroke="rgba(255,255,255,0.03)" stroke-width="1"/>
    </pattern>
  </defs>
  <rect width="1200" height="630" fill="url(#grid)"/>
  <!-- Skull icon -->
  <g transform="translate(100, 180) scale(4)">
    <path d="M16 4C10 4 5 9 5 15c0 4 2 7 5 9v3h12v-3c3-2 5-5 5-9 0-6-5-11-11-11z" fill="none" stroke="white" stroke-width="1.5" stroke-linejoin="miter"/>
    <rect x="10" y="13" width="4" height="4" fill="white"/>
    <rect x="18" y="13" width="4" height="4" fill="white"/>
    <path d="M15 19v2h2v-2" fill="none" stroke="white" stroke-width="1.5" stroke-linejoin="miter"/>
    <path d="M11 28v-3M14 28v-3M18 28v-3M21 28v-3" stroke="white" stroke-width="1.5"/>
    <path d="M22 6l-3 5 2 3-2 4" stroke="white" stroke-width="1" opacity="0.6"/>
  </g>
  <!-- Title -->
  <text x="340" y="260" font-family="monospace" font-size="96" font-weight="900" fill="white" letter-spacing="-4">REKT</text>
  <!-- Subtitle -->
  <text x="340" y="320" font-family="monospace" font-size="28" fill="rgba(255,255,255,0.5)" letter-spacing="4">CRYPTO INTELLIGENCE</text>
  <!-- Tags -->
  <rect x="340" y="360" width="180" height="32" fill="none" stroke="rgba(255,255,255,0.15)" stroke-width="1"/>
  <text x="360" y="382" font-family="monospace" font-size="14" fill="rgba(255,255,255,0.4)" letter-spacing="2">EVERY DEX TOKEN</text>
  <rect x="540" y="360" width="180" height="32" fill="none" stroke="rgba(255,255,255,0.15)" stroke-width="1"/>
  <text x="560" y="382" font-family="monospace" font-size="14" fill="rgba(255,255,255,0.4)" letter-spacing="2">15S REFRESH</text>
  <rect x="740" y="360" width="180" height="32" fill="none" stroke="rgba(255,255,255,0.15)" stroke-width="1"/>
  <text x="760" y="382" font-family="monospace" font-size="14" fill="rgba(255,255,255,0.4)" letter-spacing="2">AGENT NATIVE</text>
  <!-- Bottom bar -->
  <rect x="0" y="600" width="1200" height="2" fill="rgba(255,255,255,0.1)"/>
  <text x="100" y="622" font-family="monospace" font-size="12" fill="rgba(255,255,255,0.2)">rekt-rho.vercel.app</text>
</svg>
